<!--?xml version="1.0" encoding="utf-8"?-->
<!-- Generator: Adobe Illustrator 18.1.1, SVG Export Plug-In . SVG Version: 6.00 Build 0)  -->

<svg version="1.1" id="_x32_" xmlns="http://www.w3.org/2000/svg" xmlns:xlink="http://www.w3.org/1999/xlink" x="0px" y="0px" viewBox="0 0 512 512" style="width: 256px; height: 256px; opacity: 1;" xml:space="preserve">
<style type="text/css">
	.st0{fill:#008000;}
</style>
<g>
	<path class="st0" d="M402.177,488.468l0.026-0.034l0.051-0.077l-0.008-0.009h-0.009c-0.111-0.068-1.028-0.677-2.528-2.828
		c-2.271-3.256-5.707-10.154-8.638-23.078c-2.939-12.914-5.39-31.784-6.076-58.786c-1.243-47.158-8.389-77.031-20.095-97.684
		c-5.836-10.282-12.871-18.098-20.352-24.046c-0.223-0.171-0.446-0.317-0.669-0.489l108.909-170.455l-38.82-24.8l26.376-41.288
		L370.094,0l-26.377,41.296l-38.82-24.808L195.131,188.279l-3.239-2.065c-5.099-3.256-11.886-1.766-15.151,3.342
		c-3.256,5.099-1.766,11.886,3.342,15.142l3.239,2.074L59.211,401.008l38.836,24.809l-26.394,41.296L141.906,512l4.722-7.404
		l21.654-33.901l38.828,24.809l123.941-193.979c0.189,0.189,0.274,0.437,0.488,0.617c0.489,0.437,0.737,0.754,1.089,1.636
		c0.334,0.875,0.634,2.366,0.625,4.491c0.061,4.952-1.756,12.974-4.927,22.246c-4.696,13.986-12.117,30.902-18.475,48.298
		c-6.316,17.448-11.749,35.358-11.809,52.719c0,7.687,1.131,15.34,4.045,22.572c2.888,7.216,7.66,13.908,14.234,19.264
		c4.687,3.839,11.602,3.154,15.433-1.534c3.839-4.688,3.154-11.603-1.534-15.434c-3.796-3.136-6.144-6.487-7.79-10.506
		c-1.628-4.02-2.45-8.802-2.45-14.363c-0.018-8.364,1.919-18.356,5.055-28.947c4.688-15.922,11.989-33.112,18.271-49.249
		c3.145-8.081,6.033-15.922,8.209-23.403c0.052-0.171,0.086-0.326,0.128-0.497c0.181,0.462,0.361,0.865,0.532,1.336
		c5.862,16.162,10.026,39.549,10.883,73.449c1.251,47.081,7.43,72.06,14.44,86.56c3.514,7.224,7.379,11.868,11.123,14.774
		c3.728,2.931,7.293,3.89,9.135,4.062c6.025,0.634,11.424-3.736,12.058-9.761C410.37,494.603,407.019,490.028,402.177,488.468z
		M375.433,24.252l40.671,25.982L399.17,76.722L358.508,50.74L375.433,24.252z M136.567,487.757l-40.671-25.992l16.934-26.497
		l40.671,25.983L136.567,487.757z M204.368,390.279l-48.52-31.004l77.151-120.762l48.529,31.004L204.368,390.279z M293.337,251.042
		l-48.52-31.013l62.814-98.318l48.52,31.013L293.337,251.042z"></path>
</g>
</svg>
